<svg width="150" height="150" viewBox="0 0 150 150" fill="none" xmlns="http://www.w3.org/2000/svg">
<path d="M0 40H40V110H0V40Z" fill="#6987C9"/>
<path d="M0 40V40C0 30.7003 0 26.0504 1.02223 22.2354C3.79624 11.8827 11.8827 3.79624 22.2354 1.02223C26.0504 0 30.7003 0 40 0L76 0V40L0 40Z" fill="#6987C9"/>
<path d="M40 150C30.7003 150 26.0504 150 22.2354 148.978C11.8827 146.204 3.79624 138.117 1.02223 127.765C0 123.95 0 119.3 0 110V110H76V150H40Z" fill="#6987C9"/>
<circle cx="75" cy="75" r="75" transform="rotate(-180 75 75)" fill="#6987C9"/>
<path d="M52 60H80C88.2843 60 95 66.7157 95 75V75C95 83.2843 88.2843 90 80 90H52V60Z" fill="white"/>
<path d="M39 10H99C107.284 10 114 16.7157 114 25V25C114 33.2843 107.284 40 99 40H39V10Z" fill="white"/>
<path d="M9 40C9 30.6812 9 26.0218 10.5224 22.3463C12.5523 17.4458 16.4458 13.5523 21.3463 11.5224C25.0218 10 29.6812 10 39 10V10V140V140C29.6812 140 25.0218 140 21.3463 138.478C16.4458 136.448 12.5523 132.554 10.5224 127.654C9 123.978 9 119.319 9 110V40Z" fill="white"/>
</svg>
